<svg width="781" height="266" viewBox="0 0 781 266" fill="none" xmlns="http://www.w3.org/2000/svg">
<path d="M218.816 57.8H237.84V121.832H278.672V139H218.816V57.8ZM292.056 76.012C288.885 76.012 286.294 75.084 284.284 73.228C282.35 71.372 281.384 69.0133 281.384 66.152C281.384 63.2133 282.389 60.816 284.4 58.96C286.41 57.104 288.962 56.176 292.056 56.176C295.149 56.176 297.701 57.104 299.712 58.96C301.722 60.816 302.728 63.2133 302.728 66.152C302.728 69.0133 301.722 71.372 299.712 73.228C297.778 75.084 295.226 76.012 292.056 76.012ZM282.892 81.696H301.104V139H282.892V81.696ZM357.873 129.604C361.739 131.383 364.717 133.857 366.805 137.028C368.97 140.121 370.053 143.717 370.053 147.816C370.053 152.611 368.738 156.825 366.109 160.46C363.479 164.172 359.767 166.995 354.973 168.928C350.178 170.939 344.61 171.944 338.269 171.944C332.082 171.944 326.669 170.939 322.029 168.928C317.389 166.917 313.793 164.056 311.241 160.344C308.766 156.632 307.529 152.34 307.529 147.468C307.529 146.231 307.567 145.303 307.645 144.684H325.161C325.006 148.473 326.05 151.412 328.293 153.5C330.613 155.588 333.938 156.632 338.269 156.632C342.135 156.632 345.267 155.743 347.665 153.964C350.062 152.263 351.261 149.981 351.261 147.12C351.261 144.181 350.139 141.9 347.897 140.276C345.731 138.729 342.599 137.956 338.501 137.956C332.159 137.956 326.591 136.757 321.797 134.36C317.079 131.963 313.406 128.599 310.777 124.268C308.225 119.86 306.949 114.756 306.949 108.956C306.949 103.388 308.263 98.4387 310.893 94.108C313.599 89.7 317.311 86.2973 322.029 83.9C326.823 81.4253 332.275 80.188 338.385 80.188C343.102 80.188 347.433 81.116 351.377 82.972L358.105 74.62L371.445 84.248L363.789 93.18C367.655 97.588 369.589 102.847 369.589 108.956C369.589 113.209 368.545 117.153 366.457 120.788C364.446 124.345 361.585 127.284 357.873 129.604ZM338.385 122.528C342.406 122.528 345.654 121.291 348.129 118.816C350.603 116.341 351.841 113.055 351.841 108.956C351.841 104.857 350.603 101.609 348.129 99.212C345.731 96.7373 342.483 95.5 338.385 95.5C334.363 95.5 331.115 96.7373 328.641 99.212C326.166 101.609 324.929 104.857 324.929 108.956C324.929 112.977 326.166 116.264 328.641 118.816C331.115 121.291 334.363 122.528 338.385 122.528ZM412.539 80.42C419.576 80.42 425.144 82.7787 429.243 87.496C433.419 92.2133 435.507 98.5933 435.507 106.636V139H417.295V107.68C417.295 103.968 416.367 101.068 414.511 98.98C412.732 96.892 410.219 95.848 406.971 95.848C403.413 95.848 400.513 97.0467 398.271 99.444C396.105 101.841 395.023 104.973 395.023 108.84V139H376.811V57.8H395.023V87.96C399.431 82.9333 405.269 80.42 412.539 80.42ZM484.602 136.796C480.117 139.039 475.051 140.16 469.406 140.16C463.142 140.16 458.193 138.42 454.558 134.94C450.923 131.383 449.106 125.699 449.106 117.888V96.196H439.362V81.696H449.106V67.428L467.202 65.456V81.696H481.47V96.196H467.202V117.888C467.202 120.208 467.782 121.948 468.942 123.108C470.102 124.191 471.687 124.732 473.698 124.732C475.941 124.732 478.145 124.191 480.31 123.108L484.602 136.796ZM527.966 81.696H547.686L511.958 163.824H492.586L503.722 138.188L481.45 81.696H501.054L507.666 99.792L513.93 118.468L520.658 99.792L527.966 81.696ZM575.6 80.42C581.864 80.42 587.278 81.6187 591.84 84.016C596.403 86.336 599.883 89.6613 602.28 93.992C604.755 98.2453 605.992 103.233 605.992 108.956C605.992 110.812 605.799 113.093 605.412 115.8H563.304C563.846 118.739 565.431 121.136 568.06 122.992C570.69 124.771 574.054 125.66 578.152 125.66C581.014 125.66 583.798 125.235 586.504 124.384C589.211 123.533 591.531 122.335 593.464 120.788L602.976 130.996C599.728 134.012 595.862 136.332 591.376 137.956C586.968 139.58 582.251 140.392 577.224 140.392C570.574 140.392 564.812 139.193 559.94 136.796C555.068 134.321 551.318 130.841 548.688 126.356C546.059 121.871 544.744 116.573 544.744 110.464C544.744 104.587 546.02 99.3667 548.572 94.804C551.202 90.2413 554.836 86.7227 559.476 84.248C564.116 81.696 569.491 80.42 575.6 80.42ZM576.18 94.804C572.546 94.804 569.568 95.732 567.248 97.588C565.006 99.444 563.73 102.035 563.42 105.36H588.708C588.476 102.035 587.239 99.444 584.996 97.588C582.831 95.732 579.892 94.804 576.18 94.804ZM671.522 81.696V139H655.746L654.586 132.156C649.714 137.492 643.373 140.16 635.562 140.16C630.226 140.16 625.47 138.923 621.294 136.448C617.196 133.896 613.986 130.377 611.666 125.892C609.346 121.329 608.186 116.148 608.186 110.348C608.186 104.548 609.346 99.4053 611.666 94.92C613.986 90.3573 617.196 86.8387 621.294 84.364C625.47 81.812 630.226 80.536 635.562 80.536C639.429 80.536 642.986 81.232 646.234 82.624C649.482 83.9387 652.266 85.872 654.586 88.424L655.746 81.696H671.522ZM639.854 124.848C643.876 124.848 647.162 123.533 649.714 120.904C652.266 118.197 653.542 114.679 653.542 110.348C653.542 106.017 652.266 102.537 649.714 99.908C647.162 97.2013 643.876 95.848 639.854 95.848C635.833 95.848 632.546 97.2013 629.994 99.908C627.52 102.615 626.282 106.095 626.282 110.348C626.282 114.601 627.52 118.081 629.994 120.788C632.546 123.495 635.833 124.848 639.854 124.848ZM713.136 80.42C715.766 80.42 718.395 80.9227 721.024 81.928C723.654 82.856 725.935 84.248 727.868 86.104L720.212 99.444C718.588 98.4387 717.08 97.704 715.688 97.24C714.296 96.776 712.827 96.544 711.28 96.544C707.414 96.544 704.359 97.7813 702.116 100.256C699.874 102.731 698.752 106.365 698.752 111.16V139H680.54V81.696H696.432L697.824 88.888C701.536 83.2427 706.64 80.42 713.136 80.42ZM751.188 140.508C741.057 140.508 732.241 137.956 724.74 132.852L731.7 120.324C734.484 122.025 737.693 123.34 741.328 124.268C745.04 125.196 748.713 125.66 752.348 125.66C757.375 125.66 759.888 124.307 759.888 121.6C759.888 120.208 759.192 119.164 757.8 118.468C756.408 117.772 754.088 117.308 750.84 117.076C743.571 116.689 737.771 114.872 733.44 111.624C729.187 108.376 727.06 104.123 727.06 98.864C727.06 93.1413 729.38 88.6173 734.02 85.292C738.66 81.8893 744.924 80.188 752.812 80.188C757.297 80.188 761.551 80.7293 765.572 81.812C769.671 82.8947 773.189 84.4027 776.128 86.336L769.052 98.516C764.721 96.0413 759.579 94.804 753.624 94.804C747.747 94.804 744.808 96.196 744.808 98.98C744.808 100.14 745.388 101.029 746.548 101.648C747.785 102.267 749.835 102.731 752.696 103.04C760.893 103.659 767.119 105.515 771.372 108.608C775.703 111.701 777.868 116.032 777.868 121.6C777.868 127.477 775.509 132.117 770.792 135.52C766.075 138.845 759.54 140.508 751.188 140.508Z" fill="white"/>
<path d="M219.295 198V164.85H241.735V170.868H225.874V178.416H240.664V184.434H225.874V191.982H241.735V198H219.295ZM260.397 198.408C253.971 198.408 249.279 193.257 249.279 186.27C249.279 179.181 253.971 174.183 260.397 174.183C263.355 174.183 265.548 175.254 267.129 177.039V164.85H273.504V198H267.129V195.552C265.548 197.337 263.355 198.408 260.397 198.408ZM261.315 192.39C264.834 192.39 267.129 189.789 267.129 186.27C267.129 182.751 264.834 180.15 261.315 180.15C257.796 180.15 255.45 182.751 255.45 186.27C255.45 189.789 257.796 192.39 261.315 192.39ZM291.372 198.408C287.139 198.408 282.192 196.113 282.192 188.922V174.54H288.567V187.902C288.567 192.033 291.474 193.002 293.31 193.002C295.146 193.002 297.9 192.033 297.9 187.902V174.54H304.275V198H297.9V195.858C296.115 197.745 293.667 198.408 291.372 198.408ZM324.062 198.459C316.973 198.459 312.077 193.359 312.077 186.27C312.077 179.181 316.973 174.132 324.062 174.132C328.193 174.132 331.559 175.968 333.599 178.875L329.06 182.394C328.244 181.425 326.816 180.15 324.215 180.15C320.696 180.15 318.299 182.751 318.299 186.27C318.299 189.789 320.696 192.39 324.215 192.39C326.816 192.39 328.193 191.319 329.06 190.248L333.599 193.665C331.559 196.623 328.193 198.459 324.062 198.459ZM350.659 198.408C344.233 198.408 339.541 193.257 339.541 186.27C339.541 179.181 344.233 174.183 350.659 174.183C353.617 174.183 355.81 175.254 357.391 177.039V174.54H363.766V198H357.391V195.552C355.81 197.337 353.617 198.408 350.659 198.408ZM351.577 192.39C355.096 192.39 357.391 189.789 357.391 186.27C357.391 182.751 355.096 180.15 351.577 180.15C348.058 180.15 345.712 182.751 345.712 186.27C345.712 189.789 348.058 192.39 351.577 192.39ZM380.869 198C376.177 198 373.984 195.552 373.984 191.217V179.385H370.924V174.54H373.984V167.349H380.359V174.54H385.357V179.385H380.359V190.197C380.359 192.951 382.042 193.053 383.521 193.053H385.102V198H380.869ZM396.415 171.072C394.681 171.072 392.896 169.746 392.896 167.502C392.896 165.309 394.681 164.136 396.415 164.136C398.098 164.136 399.934 165.309 399.934 167.502C399.934 169.746 398.098 171.072 396.415 171.072ZM393.202 198V174.54H399.628L399.577 198H393.202ZM419.827 198.51C412.738 198.51 407.74 193.257 407.74 186.27C407.74 179.181 412.738 174.081 419.827 174.081C426.967 174.081 431.914 179.181 431.914 186.27C431.914 193.257 426.967 198.51 419.827 198.51ZM419.827 192.39C423.346 192.39 425.641 189.789 425.641 186.27C425.641 182.751 423.346 180.15 419.827 180.15C416.359 180.15 414.013 182.751 414.013 186.27C414.013 189.789 416.359 192.39 419.827 192.39ZM439.707 198V174.54H446.082V176.784C447.867 174.846 450.366 174.183 452.661 174.183C456.894 174.183 461.79 176.478 461.79 183.669V198H455.415V184.638C455.415 180.507 452.508 179.538 450.723 179.538C448.887 179.538 446.082 180.507 446.082 184.638V198H439.707ZM494.846 198.459C487.757 198.459 482.861 193.359 482.861 186.27C482.861 179.181 487.757 174.132 494.846 174.132C498.977 174.132 502.343 175.968 504.383 178.875L499.844 182.394C499.028 181.425 497.6 180.15 494.999 180.15C491.48 180.15 489.083 182.751 489.083 186.27C489.083 189.789 491.48 192.39 494.999 192.39C497.6 192.39 498.977 191.319 499.844 190.248L504.383 193.665C502.343 196.623 498.977 198.459 494.846 198.459ZM522.412 198.51C515.323 198.51 510.325 193.257 510.325 186.27C510.325 179.181 515.323 174.081 522.412 174.081C529.552 174.081 534.499 179.181 534.499 186.27C534.499 193.257 529.552 198.51 522.412 198.51ZM522.412 192.39C525.931 192.39 528.226 189.789 528.226 186.27C528.226 182.751 525.931 180.15 522.412 180.15C518.944 180.15 516.598 182.751 516.598 186.27C516.598 189.789 518.944 192.39 522.412 192.39ZM542.292 198V174.54H548.667V176.784C550.452 174.846 552.951 174.183 555.246 174.183C559.479 174.183 564.375 176.478 564.375 183.669V198H558V184.638C558 180.507 555.093 179.538 553.308 179.538C551.472 179.538 548.667 180.507 548.667 184.638V198H542.292ZM582.173 198.714C576.41 198.714 572.84 195.909 571.667 193.053L576.002 190.146C576.563 191.472 579.317 193.614 582.275 193.614C584.468 193.614 585.641 192.951 585.641 191.421C585.641 189.534 582.632 189.024 580.796 188.412C578.96 187.8 572.687 186.321 572.687 181.17C572.687 176.172 577.073 174.03 582.122 174.03C587.222 174.03 590.639 176.427 591.812 178.977L587.681 181.629C586.967 180.507 584.417 178.875 581.918 178.875C579.827 178.875 578.909 179.691 578.909 180.864C578.909 182.751 581.816 183.261 583.652 183.873C585.488 184.485 591.863 186.117 591.863 191.166C591.863 196.113 588.191 198.714 582.173 198.714ZM608.294 198.408C604.061 198.408 599.114 196.113 599.114 188.922V174.54H605.489V187.902C605.489 192.033 608.396 193.002 610.232 193.002C612.068 193.002 614.822 192.033 614.822 187.902V174.54H621.197V198H614.822V195.858C613.037 197.745 610.589 198.408 608.294 198.408ZM629.865 198V164.85H636.291L636.24 198H629.865ZM653.393 198C648.701 198 646.508 195.552 646.508 191.217V179.385H643.448V174.54H646.508V167.349H652.883V174.54H657.881V179.385H652.883V190.197C652.883 192.951 654.566 193.053 656.045 193.053H657.626V198H653.393ZM674.923 198.408C668.497 198.408 663.805 193.257 663.805 186.27C663.805 179.181 668.497 174.183 674.923 174.183C677.881 174.183 680.074 175.254 681.655 177.039V174.54H688.03V198H681.655V195.552C680.074 197.337 677.881 198.408 674.923 198.408ZM675.841 192.39C679.36 192.39 681.655 189.789 681.655 186.27C681.655 182.751 679.36 180.15 675.841 180.15C672.322 180.15 669.976 182.751 669.976 186.27C669.976 189.789 672.322 192.39 675.841 192.39ZM696.719 198V174.54H703.094V176.784C704.879 174.846 707.378 174.183 709.673 174.183C713.906 174.183 718.802 176.478 718.802 183.669V198H712.427V184.638C712.427 180.507 709.52 179.538 707.735 179.538C705.899 179.538 703.094 180.507 703.094 184.638V198H696.719ZM738.588 198.459C731.499 198.459 726.603 193.359 726.603 186.27C726.603 179.181 731.499 174.132 738.588 174.132C742.719 174.132 746.085 175.968 748.125 178.875L743.586 182.394C742.77 181.425 741.342 180.15 738.741 180.15C735.222 180.15 732.825 182.751 732.825 186.27C732.825 189.789 735.222 192.39 738.741 192.39C741.342 192.39 742.719 191.319 743.586 190.248L748.125 193.665C746.085 196.623 742.719 198.459 738.588 198.459ZM758.901 207.384L762.624 198L753.393 174.54H759.972L765.735 189.177L771.6 174.54H778.179L765.123 207.384H758.901Z" fill="white"/>
<path d="M146.207 11.3255C147.426 7.68583 152.574 7.68582 153.793 11.3255L165.141 45.2099C165.683 46.828 167.192 47.9241 168.898 47.9395L204.631 48.2613C208.469 48.2958 210.06 53.1919 206.975 55.4759L178.256 76.7394C176.884 77.7548 176.308 79.5284 176.821 81.1559L187.557 115.239C188.71 118.9 184.545 121.926 181.419 119.698L152.322 98.9552C150.932 97.9647 149.068 97.9647 147.678 98.9552L118.581 119.698C115.455 121.926 111.29 118.9 112.443 115.239L123.179 81.1559C123.692 79.5284 123.116 77.7548 121.744 76.7394L93.0251 55.4759C89.9403 53.1919 91.5311 48.2958 95.3693 48.2613L131.102 47.9395C132.808 47.9241 134.317 46.828 134.859 45.2099L146.207 11.3255Z" fill="url(#paint0_linear_18987_722)"/>
<path d="M116.229 83.447C116.63 83.1249 116.91 82.6666 116.995 82.1539C117.079 81.6414 116.963 81.1195 116.669 80.699C116.375 80.2786 115.924 79.9903 115.414 79.8938C114.903 79.7971 114.377 79.9031 113.937 80.1692C113.937 80.1692 113.937 80.1692 113.937 80.1692C110.837 82.0532 107.897 83.9006 104.879 85.8956C78.0929 103.201 54.0242 127.865 41.2995 158.313C28.3042 188.554 24.0495 220.927 21.6147 252.647C21.3517 256.228 21.1366 259.67 20.9283 263.289C20.8923 263.934 21.089 264.578 21.5002 265.083C21.9112 265.589 22.4989 265.913 23.1392 265.985C23.7795 266.058 24.4249 265.873 24.9383 265.472C25.4519 265.072 25.7876 264.488 25.8966 263.851C25.8966 263.851 25.8966 263.851 25.8966 263.851C26.5006 260.293 27.0907 256.916 27.7079 253.403C33.3103 222.263 39.1719 191.034 51.3889 162.696C63.3369 134.242 83.8565 110.362 108.071 90.1637C110.788 87.8697 113.43 85.6907 116.229 83.447Z" fill="#FFB600"/>
<path d="M106.823 127.758C107.049 127.456 107.179 127.084 107.163 126.701C107.147 126.319 106.989 125.961 106.72 125.702C106.45 125.443 106.086 125.299 105.704 125.298C105.321 125.297 104.954 125.441 104.661 125.679C104.661 125.679 104.661 125.679 104.661 125.679C103.157 126.906 101.726 128.099 100.266 129.374C87.3488 140.521 75.6899 154.682 69.9084 171.707C64.0234 188.661 63.8447 206.561 65.8583 223.537C66.0857 225.465 66.3411 227.293 66.6256 229.222C66.6822 229.595 66.8563 229.949 67.1398 230.206C67.4231 230.463 67.7885 230.602 68.1625 230.592C68.5365 230.582 68.8941 230.424 69.1633 230.152C69.4328 229.881 69.5878 229.518 69.6246 229.143C69.6246 229.143 69.6246 229.143 69.6246 229.143C69.807 227.218 69.9953 225.402 70.1881 223.498C71.9465 206.66 74.0664 190.165 79.3554 174.986C84.5229 159.773 93.4255 145.917 103.45 132.308C104.578 130.774 105.67 129.295 106.823 127.758Z" fill="#FFB600"/>
<path d="M148.164 114.763C148.426 114.487 148.595 114.127 148.617 113.742C148.639 113.357 148.514 112.982 148.267 112.695C148.021 112.408 147.668 112.229 147.284 112.193C146.9 112.157 146.519 112.27 146.207 112.489C146.207 112.489 146.207 112.489 146.207 112.489C144.79 113.488 143.433 114.487 142.069 115.55C129.773 124.864 119.987 138.322 114.763 153.053C109.4 167.737 106.961 182.939 105.07 197.986C104.862 199.678 104.675 201.317 104.482 203.032C104.426 203.54 104.546 204.061 104.843 204.485C105.139 204.909 105.584 205.2 106.085 205.296C106.585 205.392 107.106 205.285 107.538 205.001C107.971 204.717 108.275 204.277 108.411 203.784C108.411 203.784 108.411 203.784 108.411 203.784C108.864 202.124 109.3 200.537 109.742 198.898C113.733 184.318 117.226 169.591 122.267 155.828C127.226 142.02 134.638 129.522 144.76 118.442C145.878 117.197 146.991 115.991 148.164 114.763Z" fill="#FFB600"/>
<defs>
<linearGradient id="paint0_linear_18987_722" x1="126" y1="29.5" x2="185" y2="115" gradientUnits="userSpaceOnUse">
<stop stop-color="#007ACD"/>
<stop offset="1" stop-color="#004C8D"/>
</linearGradient>
</defs>
</svg>
